<mxfile host="65bd71144e">
    <diagram id="kDZaz-kTJFLnxSt82wPK" name="Page-1">
        <mxGraphModel dx="1210" dy="793" grid="1" gridSize="13" guides="1" tooltips="1" connect="1" arrows="1" fold="1" page="1" pageScale="1.5" pageWidth="1200" pageHeight="1920" background="none" math="0" shadow="0">
            <root>
                <mxCell id="0"/>
                <mxCell id="1" parent="0"/>
                <mxCell id="56" value="" style="edgeStyle=none;rounded=1;html=1;" edge="1" parent="1" source="2" target="54">
                    <mxGeometry relative="1" as="geometry"/>
                </mxCell>
                <mxCell id="2" value="" style="rounded=1;whiteSpace=wrap;html=1;fillColor=none;arcSize=7;" vertex="1" parent="1">
                    <mxGeometry x="234" y="403" width="351" height="143" as="geometry"/>
                </mxCell>
                <mxCell id="3" value="Scene" style="text;html=1;strokeColor=none;fillColor=none;align=center;verticalAlign=middle;whiteSpace=wrap;rounded=1;" vertex="1" parent="1">
                    <mxGeometry x="247" y="403" width="60" height="30" as="geometry"/>
                </mxCell>
                <mxCell id="7" value="" style="rounded=1;whiteSpace=wrap;html=1;fillColor=default;" vertex="1" parent="1">
                    <mxGeometry x="247" y="676" width="325" height="130" as="geometry"/>
                </mxCell>
                <mxCell id="8" value="&lt;div style=&quot;text-align: left&quot;&gt;&lt;span&gt;View&lt;/span&gt;&lt;/div&gt;&lt;div style=&quot;text-align: left&quot;&gt;&lt;span&gt;: how to look at one scene&lt;/span&gt;&lt;/div&gt;" style="text;html=1;align=center;verticalAlign=middle;resizable=0;points=[];autosize=1;strokeColor=none;fillColor=none;rounded=1;" vertex="1" parent="1">
                    <mxGeometry x="260" y="676" width="156" height="39" as="geometry"/>
                </mxCell>
                <mxCell id="9" value="" style="rounded=1;whiteSpace=wrap;html=1;fillColor=default;" vertex="1" parent="1">
                    <mxGeometry x="247" y="910" width="273" height="91" as="geometry"/>
                </mxCell>
                <mxCell id="10" value="Camera" style="text;html=1;align=center;verticalAlign=middle;resizable=0;points=[];autosize=1;strokeColor=none;fillColor=none;rounded=1;" vertex="1" parent="1">
                    <mxGeometry x="242" y="910" width="65" height="26" as="geometry"/>
                </mxCell>
                <mxCell id="11" value="View projection" style="rounded=1;whiteSpace=wrap;html=1;fillColor=default;" vertex="1" parent="1">
                    <mxGeometry x="253.5" y="938.5" width="91" height="23.5" as="geometry"/>
                </mxCell>
                <mxCell id="12" value="From A CamDirection" style="rounded=1;whiteSpace=wrap;html=1;fillColor=default;dashed=1;" vertex="1" parent="1">
                    <mxGeometry x="260" y="741" width="130" height="26" as="geometry"/>
                </mxCell>
                <mxCell id="13" value="" style="endArrow=classic;html=1;entryX=0.5;entryY=1;entryDx=0;entryDy=0;rounded=1;" edge="1" parent="1" target="12">
                    <mxGeometry width="50" height="50" relative="1" as="geometry">
                        <mxPoint x="325" y="910" as="sourcePoint"/>
                        <mxPoint x="362" y="858" as="targetPoint"/>
                    </mxGeometry>
                </mxCell>
                <mxCell id="14" value="&lt;div&gt;&lt;span&gt;Abstract View Layer&lt;/span&gt;&lt;/div&gt;&lt;div&gt;&lt;span&gt;Definition&lt;/span&gt;&lt;/div&gt;" style="rounded=1;whiteSpace=wrap;html=1;fillColor=default;align=center;" vertex="1" parent="1">
                    <mxGeometry x="429" y="741" width="120" height="26" as="geometry"/>
                </mxCell>
                <mxCell id="25" value="MeshInstances" style="rounded=1;whiteSpace=wrap;html=1;fillColor=default;" vertex="1" parent="1">
                    <mxGeometry x="445" y="463.5" width="88" height="22" as="geometry"/>
                </mxCell>
                <mxCell id="26" value="MeshInstances" style="rounded=1;whiteSpace=wrap;html=1;fillColor=default;" vertex="1" parent="1">
                    <mxGeometry x="445" y="498" width="114" height="22" as="geometry"/>
                </mxCell>
                <mxCell id="40" value="" style="edgeStyle=none;html=1;rounded=1;" edge="1" parent="1" source="38" target="25">
                    <mxGeometry relative="1" as="geometry"/>
                </mxCell>
                <mxCell id="38" value="mesh2" style="rounded=1;whiteSpace=wrap;html=1;fillColor=default;" vertex="1" parent="1">
                    <mxGeometry x="364" y="463.5" width="52" height="22" as="geometry"/>
                </mxCell>
                <mxCell id="41" value="" style="edgeStyle=none;html=1;rounded=1;" edge="1" parent="1" source="39" target="26">
                    <mxGeometry relative="1" as="geometry"/>
                </mxCell>
                <mxCell id="39" value="mesh3" style="rounded=1;whiteSpace=wrap;html=1;fillColor=default;" vertex="1" parent="1">
                    <mxGeometry x="364" y="498" width="52" height="22" as="geometry"/>
                </mxCell>
                <mxCell id="80" value="" style="edgeStyle=none;rounded=1;html=1;" edge="1" parent="1" source="42" target="78">
                    <mxGeometry relative="1" as="geometry"/>
                </mxCell>
                <mxCell id="81" value="" style="edgeStyle=none;rounded=1;html=1;" edge="1" parent="1" source="42" target="78">
                    <mxGeometry relative="1" as="geometry"/>
                </mxCell>
                <mxCell id="42" value="" style="rounded=1;whiteSpace=wrap;html=1;fillColor=none;" vertex="1" parent="1">
                    <mxGeometry x="962" y="403" width="286" height="142" as="geometry"/>
                </mxCell>
                <mxCell id="43" value="CulledScene" style="text;html=1;align=center;verticalAlign=middle;resizable=0;points=[];autosize=1;strokeColor=none;fillColor=none;rounded=1;" vertex="1" parent="1">
                    <mxGeometry x="962" y="403" width="91" height="26" as="geometry"/>
                </mxCell>
                <mxCell id="44" value="" style="group;rounded=1;" vertex="1" connectable="0" parent="1">
                    <mxGeometry x="364" y="433" width="208" height="22" as="geometry"/>
                </mxCell>
                <mxCell id="6" value="MeshInstances" style="rounded=1;whiteSpace=wrap;html=1;fillColor=default;" vertex="1" parent="44">
                    <mxGeometry x="81" width="127" height="22" as="geometry"/>
                </mxCell>
                <mxCell id="28" style="edgeStyle=none;html=1;exitX=1;exitY=0.5;exitDx=0;exitDy=0;entryX=0;entryY=0.5;entryDx=0;entryDy=0;rounded=1;" edge="1" parent="44" source="27" target="6">
                    <mxGeometry relative="1" as="geometry"/>
                </mxCell>
                <mxCell id="27" value="mesh1" style="rounded=1;whiteSpace=wrap;html=1;fillColor=default;" vertex="1" parent="44">
                    <mxGeometry width="52" height="22" as="geometry"/>
                </mxCell>
                <mxCell id="45" value="" style="group;rounded=1;" vertex="1" connectable="0" parent="1">
                    <mxGeometry x="1001" y="429" width="143" height="22" as="geometry"/>
                </mxCell>
                <mxCell id="46" value="CulledInstances" style="rounded=1;whiteSpace=wrap;html=1;fillColor=default;" vertex="1" parent="45">
                    <mxGeometry x="52" width="91" height="22" as="geometry"/>
                </mxCell>
                <mxCell id="47" style="edgeStyle=none;html=1;exitX=1;exitY=0.5;exitDx=0;exitDy=0;entryX=0;entryY=0.5;entryDx=0;entryDy=0;rounded=1;" edge="1" parent="45" source="48" target="46">
                    <mxGeometry relative="1" as="geometry"/>
                </mxCell>
                <mxCell id="48" value="mesh1" style="rounded=1;whiteSpace=wrap;html=1;fillColor=default;" vertex="1" parent="45">
                    <mxGeometry width="35.75" height="22" as="geometry"/>
                </mxCell>
                <mxCell id="49" value="CulledInstances" style="rounded=1;whiteSpace=wrap;html=1;fillColor=default;" vertex="1" parent="1">
                    <mxGeometry x="1056" y="455" width="88" height="22" as="geometry"/>
                </mxCell>
                <mxCell id="51" value="" style="edgeStyle=none;html=1;rounded=1;" edge="1" parent="1" source="50" target="49">
                    <mxGeometry relative="1" as="geometry"/>
                </mxCell>
                <mxCell id="50" value="mesh3" style="rounded=1;whiteSpace=wrap;html=1;fillColor=default;" vertex="1" parent="1">
                    <mxGeometry x="1001" y="455" width="39" height="22" as="geometry"/>
                </mxCell>
                <mxCell id="57" value="" style="edgeStyle=none;rounded=1;html=1;" edge="1" parent="1" source="54" target="42">
                    <mxGeometry relative="1" as="geometry"/>
                </mxCell>
                <mxCell id="54" value="" style="rounded=1;whiteSpace=wrap;html=1;fillColor=none;arcSize=0;" vertex="1" parent="1">
                    <mxGeometry x="702" y="404" width="169" height="77" as="geometry"/>
                </mxCell>
                <mxCell id="55" value="GpuCulling" style="text;html=1;align=center;verticalAlign=middle;resizable=0;points=[];autosize=1;strokeColor=none;fillColor=none;" vertex="1" parent="1">
                    <mxGeometry x="702" y="403" width="78" height="26" as="geometry"/>
                </mxCell>
                <mxCell id="79" value="" style="group" vertex="1" connectable="0" parent="1">
                    <mxGeometry x="962" y="655" width="286" height="229" as="geometry"/>
                </mxCell>
                <mxCell id="24" value="" style="group;rounded=1;" vertex="1" connectable="0" parent="79">
                    <mxGeometry x="9.225806451612904" y="5.967426710097719" width="85.16129032258065" height="213.3355048859935" as="geometry"/>
                </mxCell>
                <mxCell id="15" value="Input Assemply" style="rounded=1;whiteSpace=wrap;html=1;" vertex="1" parent="24">
                    <mxGeometry width="85.16129032258065" height="19.39413680781759" as="geometry"/>
                </mxCell>
                <mxCell id="16" value="Vertex Shader" style="rounded=1;whiteSpace=wrap;html=1;" vertex="1" parent="24">
                    <mxGeometry y="48.48534201954397" width="85.16129032258065" height="19.39413680781759" as="geometry"/>
                </mxCell>
                <mxCell id="20" style="edgeStyle=none;html=1;exitX=0.5;exitY=1;exitDx=0;exitDy=0;entryX=0.5;entryY=0;entryDx=0;entryDy=0;rounded=1;" edge="1" parent="24" source="15" target="16">
                    <mxGeometry relative="1" as="geometry"/>
                </mxCell>
                <mxCell id="17" value="Rasterization" style="rounded=1;whiteSpace=wrap;html=1;" vertex="1" parent="24">
                    <mxGeometry y="96.97068403908794" width="85.16129032258065" height="19.39413680781759" as="geometry"/>
                </mxCell>
                <mxCell id="21" style="edgeStyle=none;html=1;exitX=0.5;exitY=1;exitDx=0;exitDy=0;rounded=1;" edge="1" parent="24" source="16" target="17">
                    <mxGeometry relative="1" as="geometry"/>
                </mxCell>
                <mxCell id="18" value="Pixel Shader" style="rounded=1;whiteSpace=wrap;html=1;" vertex="1" parent="24">
                    <mxGeometry y="145.4560260586319" width="85.16129032258065" height="19.39413680781759" as="geometry"/>
                </mxCell>
                <mxCell id="22" style="edgeStyle=none;html=1;exitX=0.5;exitY=1;exitDx=0;exitDy=0;entryX=0.5;entryY=0;entryDx=0;entryDy=0;rounded=1;" edge="1" parent="24" source="17" target="18">
                    <mxGeometry relative="1" as="geometry"/>
                </mxCell>
                <mxCell id="19" value="Render Target" style="rounded=1;whiteSpace=wrap;html=1;" vertex="1" parent="24">
                    <mxGeometry y="193.94136807817588" width="85.16129032258065" height="19.39413680781759" as="geometry"/>
                </mxCell>
                <mxCell id="23" style="edgeStyle=none;html=1;exitX=0.5;exitY=1;exitDx=0;exitDy=0;entryX=0.5;entryY=0;entryDx=0;entryDy=0;rounded=1;" edge="1" parent="24" source="18" target="19">
                    <mxGeometry relative="1" as="geometry"/>
                </mxCell>
                <mxCell id="58" value="" style="group;rounded=1;" vertex="1" connectable="0" parent="79">
                    <mxGeometry x="101.48387096774195" y="5.967426710097719" width="85.16129032258065" height="213.3355048859935" as="geometry"/>
                </mxCell>
                <mxCell id="59" value="Input Assemply" style="rounded=1;whiteSpace=wrap;html=1;" vertex="1" parent="58">
                    <mxGeometry width="85.16129032258065" height="19.39413680781759" as="geometry"/>
                </mxCell>
                <mxCell id="60" value="Vertex Shader" style="rounded=1;whiteSpace=wrap;html=1;" vertex="1" parent="58">
                    <mxGeometry y="48.48534201954397" width="85.16129032258065" height="19.39413680781759" as="geometry"/>
                </mxCell>
                <mxCell id="61" style="edgeStyle=none;html=1;exitX=0.5;exitY=1;exitDx=0;exitDy=0;entryX=0.5;entryY=0;entryDx=0;entryDy=0;rounded=1;" edge="1" parent="58" source="59" target="60">
                    <mxGeometry relative="1" as="geometry"/>
                </mxCell>
                <mxCell id="62" value="Rasterization" style="rounded=1;whiteSpace=wrap;html=1;" vertex="1" parent="58">
                    <mxGeometry y="96.97068403908794" width="85.16129032258065" height="19.39413680781759" as="geometry"/>
                </mxCell>
                <mxCell id="63" style="edgeStyle=none;html=1;exitX=0.5;exitY=1;exitDx=0;exitDy=0;rounded=1;" edge="1" parent="58" source="60" target="62">
                    <mxGeometry relative="1" as="geometry"/>
                </mxCell>
                <mxCell id="64" value="Pixel Shader" style="rounded=1;whiteSpace=wrap;html=1;" vertex="1" parent="58">
                    <mxGeometry y="145.4560260586319" width="85.16129032258065" height="19.39413680781759" as="geometry"/>
                </mxCell>
                <mxCell id="65" style="edgeStyle=none;html=1;exitX=0.5;exitY=1;exitDx=0;exitDy=0;entryX=0.5;entryY=0;entryDx=0;entryDy=0;rounded=1;" edge="1" parent="58" source="62" target="64">
                    <mxGeometry relative="1" as="geometry"/>
                </mxCell>
                <mxCell id="66" value="Render Target" style="rounded=1;whiteSpace=wrap;html=1;" vertex="1" parent="58">
                    <mxGeometry y="193.94136807817588" width="85.16129032258065" height="19.39413680781759" as="geometry"/>
                </mxCell>
                <mxCell id="67" style="edgeStyle=none;html=1;exitX=0.5;exitY=1;exitDx=0;exitDy=0;entryX=0.5;entryY=0;entryDx=0;entryDy=0;rounded=1;" edge="1" parent="58" source="64" target="66">
                    <mxGeometry relative="1" as="geometry"/>
                </mxCell>
                <mxCell id="68" value="" style="group;rounded=1;" vertex="1" connectable="0" parent="79">
                    <mxGeometry x="193.74193548387098" y="5.967426710097719" width="85.16129032258065" height="213.3355048859935" as="geometry"/>
                </mxCell>
                <mxCell id="69" value="Input Assemply" style="rounded=1;whiteSpace=wrap;html=1;" vertex="1" parent="68">
                    <mxGeometry width="85.16129032258065" height="19.39413680781759" as="geometry"/>
                </mxCell>
                <mxCell id="70" value="Vertex Shader" style="rounded=1;whiteSpace=wrap;html=1;" vertex="1" parent="68">
                    <mxGeometry y="48.48534201954397" width="85.16129032258065" height="19.39413680781759" as="geometry"/>
                </mxCell>
                <mxCell id="71" style="edgeStyle=none;html=1;exitX=0.5;exitY=1;exitDx=0;exitDy=0;entryX=0.5;entryY=0;entryDx=0;entryDy=0;rounded=1;" edge="1" parent="68" source="69" target="70">
                    <mxGeometry relative="1" as="geometry"/>
                </mxCell>
                <mxCell id="72" value="Rasterization" style="rounded=1;whiteSpace=wrap;html=1;" vertex="1" parent="68">
                    <mxGeometry y="96.97068403908794" width="85.16129032258065" height="19.39413680781759" as="geometry"/>
                </mxCell>
                <mxCell id="73" style="edgeStyle=none;html=1;exitX=0.5;exitY=1;exitDx=0;exitDy=0;rounded=1;" edge="1" parent="68" source="70" target="72">
                    <mxGeometry relative="1" as="geometry"/>
                </mxCell>
                <mxCell id="74" value="Pixel Shader" style="rounded=1;whiteSpace=wrap;html=1;" vertex="1" parent="68">
                    <mxGeometry y="145.4560260586319" width="85.16129032258065" height="19.39413680781759" as="geometry"/>
                </mxCell>
                <mxCell id="75" style="edgeStyle=none;html=1;exitX=0.5;exitY=1;exitDx=0;exitDy=0;entryX=0.5;entryY=0;entryDx=0;entryDy=0;rounded=1;" edge="1" parent="68" source="72" target="74">
                    <mxGeometry relative="1" as="geometry"/>
                </mxCell>
                <mxCell id="76" value="Render Target" style="rounded=1;whiteSpace=wrap;html=1;" vertex="1" parent="68">
                    <mxGeometry y="193.94136807817588" width="85.16129032258065" height="19.39413680781759" as="geometry"/>
                </mxCell>
                <mxCell id="77" style="edgeStyle=none;html=1;exitX=0.5;exitY=1;exitDx=0;exitDy=0;entryX=0.5;entryY=0;entryDx=0;entryDy=0;rounded=1;" edge="1" parent="68" source="74" target="76">
                    <mxGeometry relative="1" as="geometry"/>
                </mxCell>
                <mxCell id="78" value="" style="rounded=1;whiteSpace=wrap;html=1;fillColor=none;arcSize=8;" vertex="1" parent="79">
                    <mxGeometry width="286" height="229" as="geometry"/>
                </mxCell>
                <mxCell id="82" value="" style="edgeStyle=none;rounded=1;html=1;" edge="1" parent="1">
                    <mxGeometry relative="1" as="geometry">
                        <mxPoint x="1020.21" y="545" as="sourcePoint"/>
                        <mxPoint x="1020.21" y="655" as="targetPoint"/>
                    </mxGeometry>
                </mxCell>
                <mxCell id="83" value="" style="edgeStyle=none;rounded=1;html=1;" edge="1" parent="1">
                    <mxGeometry relative="1" as="geometry">
                        <mxPoint x="1196" y="545" as="sourcePoint"/>
                        <mxPoint x="1196" y="655" as="targetPoint"/>
                    </mxGeometry>
                </mxCell>
                <mxCell id="84" value="" style="rounded=1;whiteSpace=wrap;html=1;fillColor=none;arcSize=0;" vertex="1" parent="1">
                    <mxGeometry x="702" y="533" width="169" height="77" as="geometry"/>
                </mxCell>
                <mxCell id="85" value="CPU Culling" style="text;html=1;align=center;verticalAlign=middle;resizable=0;points=[];autosize=1;strokeColor=none;fillColor=none;" vertex="1" parent="1">
                    <mxGeometry x="695.5" y="533" width="91" height="26" as="geometry"/>
                </mxCell>
                <mxCell id="87" value="" style="edgeStyle=none;rounded=1;html=1;exitX=1.001;exitY=0.402;exitDx=0;exitDy=0;entryX=0;entryY=0.5;entryDx=0;entryDy=0;exitPerimeter=0;" edge="1" parent="1" source="2" target="84">
                    <mxGeometry relative="1" as="geometry">
                        <mxPoint x="598" y="472.6034482758621" as="sourcePoint"/>
                        <mxPoint x="715" y="462.6724137931035" as="targetPoint"/>
                    </mxGeometry>
                </mxCell>
                <mxCell id="88" value="" style="edgeStyle=none;rounded=1;html=1;exitX=1;exitY=0.5;exitDx=0;exitDy=0;entryX=-0.005;entryY=0.567;entryDx=0;entryDy=0;entryPerimeter=0;" edge="1" parent="1" source="84" target="42">
                    <mxGeometry relative="1" as="geometry">
                        <mxPoint x="884" y="463.8571428571429" as="sourcePoint"/>
                        <mxPoint x="975" y="472.8571428571429" as="targetPoint"/>
                    </mxGeometry>
                </mxCell>
            </root>
        </mxGraphModel>
    </diagram>
</mxfile>